<svg width="264" height="164" viewBox="0 0 264 164" fill="none" xmlns="http://www.w3.org/2000/svg">
<g clip-path="url(#clip0_167_2)" filter="url(#filter0_d_167_2)">
<path d="M172.074 17.6845L173.171 39.0158C173.516 45.6423 166.943 50.3399 160.952 47.7474L141.676 39.3995C138.632 38.0825 136.567 35.1374 136.319 31.7775L134.684 9.65804C134.179 2.85526 140.977 -1.99795 147.076 0.81235L166.889 9.94841C169.901 11.338 171.902 14.3246 172.074 17.6949V17.6845ZM210.378 27.5879L190.565 18.4519C184.476 15.6416 177.678 20.5052 178.173 27.2976L179.808 49.417C180.056 52.7769 182.121 55.722 185.165 57.039L204.441 65.387C210.432 67.9795 216.994 63.2922 216.66 56.6553L215.563 35.324C215.391 31.9538 213.39 28.9672 210.378 27.5776V27.5879ZM253.706 45.549L233.892 36.4129C227.804 33.6026 221.006 38.4662 221.501 45.2586L223.136 67.378C223.383 70.7379 225.448 73.683 228.492 75L247.768 83.348C253.76 85.9405 260.321 81.2532 259.988 74.6163L258.891 53.285C258.719 49.9148 256.718 46.9282 253.706 45.5386V45.549ZM116.936 0.80198L97.1221 9.93804C94.1103 11.3276 92.1095 14.3142 91.9374 17.6845L90.8402 39.0158C90.496 45.6423 97.0683 50.3399 103.06 47.7474L122.336 39.3995C125.38 38.0825 127.445 35.1374 127.692 31.7775L129.327 9.65804C129.833 2.85526 123.035 -1.99795 116.936 0.81235V0.80198ZM73.4468 18.4519L53.6332 27.5879C50.6213 28.9775 48.6206 31.9641 48.4485 35.3344L47.3513 56.6657C47.0071 63.2922 53.5794 67.9898 59.5708 65.3973L78.8466 57.0494C81.8908 55.7324 83.956 52.7873 84.2034 49.4274L85.8384 27.308C86.344 20.5052 79.5458 15.652 73.4468 18.4623V18.4519ZM30.1085 36.4129L10.2948 45.549C7.28297 46.9385 5.28224 49.9251 5.11014 53.2954L4.01297 74.6267C3.66875 81.2532 10.241 85.9509 16.2325 83.3583L35.5083 75.0104C38.5524 73.6934 40.6177 70.7483 40.8651 67.3884L42.5001 45.269C43.0056 38.4662 36.2075 33.613 30.1085 36.4233V36.4129ZM166.889 63.5203L147.076 54.3843C140.988 51.574 134.189 56.4376 134.684 63.23L136.319 85.3494C136.567 88.7093 138.632 91.6544 141.676 92.9714L160.952 101.319C166.943 103.912 173.505 99.2246 173.171 92.5877L172.074 71.2564C171.902 67.8861 169.901 64.8996 166.889 63.51V63.5203ZM210.378 81.1702L190.565 72.0342C184.476 69.2239 177.678 74.0875 178.173 80.8799L179.808 102.999C180.056 106.359 182.121 109.304 185.165 110.621L204.441 118.969C210.432 121.562 216.994 116.874 216.66 110.238L215.563 88.9063C215.391 85.536 213.39 82.5495 210.378 81.1599V81.1702ZM116.936 54.3946L97.1221 63.5307C94.1103 64.9203 92.1095 67.9069 91.9374 71.2772L90.8402 92.6085C90.496 99.2349 97.0683 103.933 103.06 101.34L122.336 92.9921C125.38 91.6751 127.445 88.73 127.692 85.3701L129.327 63.2507C129.833 56.4479 123.035 51.5947 116.936 54.405V54.3946ZM73.4468 72.0342L53.6332 81.1702C50.6213 82.5598 48.6206 85.5464 48.4485 88.9167L47.3513 110.248C47.0071 116.874 53.5794 121.572 59.5708 118.98L78.8466 110.632C81.8908 109.315 83.956 106.37 84.2034 103.01L85.8384 80.8903C86.344 74.0875 79.5458 69.2343 73.4468 72.0446V72.0342ZM166.889 117.466L147.076 108.33C140.988 105.519 134.189 110.383 134.684 117.175L136.319 139.295C136.567 142.655 138.632 145.6 141.676 146.917L160.952 155.265C166.943 157.857 173.505 153.17 173.171 146.533L172.074 125.202C171.902 121.831 169.901 118.845 166.889 117.455V117.466ZM116.936 108.33L97.1221 117.466C94.1103 118.855 92.1095 121.842 91.9374 125.212L90.8402 146.543C90.496 153.17 97.0683 157.867 103.06 155.275L122.336 146.927C125.38 145.61 127.445 142.665 127.692 139.305L129.327 117.186C129.833 110.383 123.035 105.53 116.936 108.34V108.33Z" fill="url(#paint0_radial_167_2)"/>
</g>
<defs>
<filter id="filter0_d_167_2" x="0" y="0" width="264" height="164" filterUnits="userSpaceOnUse" color-interpolation-filters="sRGB">
<feFlood flood-opacity="0" result="BackgroundImageFix"/>
<feColorMatrix in="SourceAlpha" type="matrix" values="0 0 0 0 0 0 0 0 0 0 0 0 0 0 0 0 0 0 127 0" result="hardAlpha"/>
<feOffset dy="4"/>
<feGaussianBlur stdDeviation="2"/>
<feComposite in2="hardAlpha" operator="out"/>
<feColorMatrix type="matrix" values="0 0 0 0 0 0 0 0 0 0 0 0 0 0 0 0 0 0 0.25 0"/>
<feBlend mode="normal" in2="BackgroundImageFix" result="effect1_dropShadow_167_2"/>
<feBlend mode="normal" in="SourceGraphic" in2="effect1_dropShadow_167_2" result="shape"/>
</filter>
<radialGradient id="paint0_radial_167_2" cx="0" cy="0" r="1" gradientUnits="userSpaceOnUse" gradientTransform="translate(132.006 77.997) scale(107.082 103.234)">
<stop stop-color="#E84E1B"/>
<stop offset="1" stop-color="#BD1622"/>
</radialGradient>
<clipPath id="clip0_167_2">
<rect width="256" height="156" fill="white" transform="translate(4)"/>
</clipPath>
</defs>
</svg>
