<svg width="256" height="156" viewBox="0 0 256 156" fill="none" xmlns="http://www.w3.org/2000/svg">
<g clip-path="url(#clip0_167_2)">
<path d="M168.074 17.6845L169.171 39.0158C169.516 45.6423 162.943 50.3399 156.952 47.7474L137.676 39.3995C134.632 38.0825 132.567 35.1374 132.319 31.7775L130.684 9.65804C130.179 2.85526 136.977 -1.99795 143.076 0.81235L162.889 9.94841C165.901 11.338 167.902 14.3246 168.074 17.6949V17.6845ZM206.378 27.5879L186.565 18.4519C180.476 15.6416 173.678 20.5052 174.173 27.2976L175.808 49.417C176.056 52.7769 178.121 55.722 181.165 57.039L200.441 65.387C206.432 67.9795 212.994 63.2922 212.66 56.6553L211.563 35.324C211.391 31.9538 209.39 28.9672 206.378 27.5776V27.5879ZM249.706 45.549L229.892 36.4129C223.804 33.6026 217.006 38.4662 217.501 45.2586L219.136 67.378C219.383 70.7379 221.448 73.683 224.492 75L243.768 83.348C249.76 85.9405 256.321 81.2532 255.988 74.6163L254.891 53.285C254.719 49.9148 252.718 46.9282 249.706 45.5386V45.549ZM112.936 0.80198L93.1221 9.93804C90.1103 11.3276 88.1095 14.3142 87.9374 17.6845L86.8402 39.0158C86.496 45.6423 93.0683 50.3399 99.0597 47.7474L118.336 39.3995C121.38 38.0825 123.445 35.1374 123.692 31.7775L125.327 9.65804C125.833 2.85526 119.035 -1.99795 112.936 0.81235V0.80198ZM69.4468 18.4519L49.6332 27.5879C46.6213 28.9775 44.6206 31.9641 44.4485 35.3344L43.3513 56.6657C43.0071 63.2922 49.5794 67.9898 55.5708 65.3973L74.8466 57.0494C77.8908 55.7324 79.956 52.7873 80.2034 49.4274L81.8384 27.308C82.344 20.5052 75.5458 15.652 69.4468 18.4623V18.4519ZM26.1085 36.4129L6.29482 45.549C3.28297 46.9385 1.28224 49.9251 1.11014 53.2954L0.0129656 74.6267C-0.331246 81.2532 6.24104 85.9509 12.2325 83.3583L31.5083 75.0104C34.5524 73.6934 36.6177 70.7483 36.8651 67.3884L38.5001 45.269C39.0056 38.4662 32.2075 33.613 26.1085 36.4233V36.4129ZM162.889 63.5203L143.076 54.3843C136.988 51.574 130.189 56.4376 130.684 63.23L132.319 85.3494C132.567 88.7093 134.632 91.6544 137.676 92.9714L156.952 101.319C162.943 103.912 169.505 99.2246 169.171 92.5877L168.074 71.2564C167.902 67.8861 165.901 64.8996 162.889 63.51V63.5203ZM206.378 81.1702L186.565 72.0342C180.476 69.2239 173.678 74.0875 174.173 80.8799L175.808 102.999C176.056 106.359 178.121 109.304 181.165 110.621L200.441 118.969C206.432 121.562 212.994 116.874 212.66 110.238L211.563 88.9063C211.391 85.536 209.39 82.5495 206.378 81.1599V81.1702ZM112.936 54.3946L93.1221 63.5307C90.1103 64.9203 88.1095 67.9069 87.9374 71.2772L86.8402 92.6085C86.496 99.2349 93.0683 103.933 99.0597 101.34L118.336 92.9921C121.38 91.6751 123.445 88.73 123.692 85.3701L125.327 63.2507C125.833 56.4479 119.035 51.5947 112.936 54.405V54.3946ZM69.4468 72.0342L49.6332 81.1702C46.6213 82.5598 44.6206 85.5464 44.4485 88.9167L43.3513 110.248C43.0071 116.874 49.5794 121.572 55.5708 118.98L74.8466 110.632C77.8908 109.315 79.956 106.37 80.2034 103.01L81.8384 80.8903C82.344 74.0875 75.5458 69.2343 69.4468 72.0446V72.0342ZM162.889 117.466L143.076 108.33C136.988 105.519 130.189 110.383 130.684 117.175L132.319 139.295C132.567 142.655 134.632 145.6 137.676 146.917L156.952 155.265C162.943 157.857 169.505 153.17 169.171 146.533L168.074 125.202C167.902 121.831 165.901 118.845 162.889 117.455V117.466ZM112.936 108.33L93.1221 117.466C90.1103 118.855 88.1095 121.842 87.9374 125.212L86.8402 146.543C86.496 153.17 93.0683 157.867 99.0597 155.275L118.336 146.927C121.38 145.61 123.445 142.665 123.692 139.305L125.327 117.186C125.833 110.383 119.035 105.53 112.936 108.34V108.33Z" fill="url(#paint0_radial_167_2)"/>
</g>
<defs>
<radialGradient id="paint0_radial_167_2" cx="0" cy="0" r="1" gradientUnits="userSpaceOnUse" gradientTransform="translate(128.006 77.997) scale(107.082 103.234)">
<stop stop-color="#E84E1B"/>
<stop offset="1" stop-color="#BD1622"/>
</radialGradient>
<clipPath id="clip0_167_2">
<rect width="256" height="156" fill="white"/>
</clipPath>
</defs>
</svg>
