<?xml version="1.0" encoding="utf-8"?>
<!-- Generator: Adobe Illustrator 27.5.0, SVG Export Plug-In . SVG Version: 6.00 Build 0)  -->
<svg version="1.1" xmlns="http://www.w3.org/2000/svg" xmlns:xlink="http://www.w3.org/1999/xlink" x="0px" y="0px"
	 viewBox="0 0 500 500" style="enable-background:new 0 0 500 500;" xml:space="preserve">
<g id="BACKGROUND">
	<rect style="fill:#FFFFFF;" width="500" height="500"/>
</g>
<g id="OBJECTS">
	<g>
		<g>
			<rect x="133.363" y="283.766" style="fill:#AAAFBA;" width="1.096" height="38.444"/>
			<rect x="133.363" y="324.586" style="fill:#AAAFBA;" width="1.096" height="13.163"/>
			<path style="fill:#CBCFD7;" d="M122.716,262.07H62.563c-5.873,0-10.654,4.872-10.654,10.86v148.195
				c0,5.988,4.781,10.86,10.654,10.86h60.153c5.873,0,10.65-4.872,10.65-10.86V272.93
				C133.366,266.942,128.589,262.07,122.716,262.07z M131.783,421.126c0,5.113-4.069,9.277-9.067,9.277H62.563
				c-5.003,0-9.071-4.163-9.071-9.277V272.93c0-5.113,4.068-9.277,9.071-9.277h60.153c4.999,0,9.067,4.163,9.067,9.277V421.126z"/>
			<g>
				<g>
					<path style="fill:#AAAFBA;" d="M122.716,430.997H62.563c-5.329,0-9.665-4.428-9.665-9.871V272.931
						c0-5.442,4.335-9.87,9.665-9.87h60.153c5.327,0,9.661,4.428,9.661,9.87v148.195
						C132.376,426.569,128.043,430.997,122.716,430.997z M62.563,264.248c-4.674,0-8.477,3.895-8.477,8.683v148.195
						c0,4.788,3.803,8.683,8.477,8.683h60.153c4.672,0,8.473-3.895,8.473-8.683V272.931c0-4.788-3.801-8.683-8.473-8.683H62.563z"/>
				</g>
			</g>
			<path style="fill:#676D77;" d="M133.367,272.932c0.255,46.319,0.591,102.628,0.518,148.678
				c-0.12,5.703-4.98,10.784-10.731,10.915c-0.891,0.036-2.171,0.022-3.071,0.025c-15.763,0.025-40.663,0.033-56.413,0
				c-6.171,0.426-11.547-3.965-12.229-10.142c-0.225-46.267,0.246-102.96,0.468-149.476c0,0,0.291,48.79,0.291,48.79
				c0.186,29.504,0.194,70.033,0.252,99.104c-0.04,2.426,0.729,4.847,2.243,6.751c2.13,2.749,5.542,4.076,8.975,3.848
				c14.345-0.019,38.99-0.038,53.364-0.004c0.903-0.02,3.674,0.019,4.574,0.005c3.428,0.228,6.851-1.096,8.975-3.848
				c1.513-1.905,2.283-4.326,2.243-6.753l0.002-1.525C132.87,374.215,133.047,318.257,133.367,272.932L133.367,272.932z"/>
		</g>
		<g>
			<path style="fill:#FFFFFF;" d="M131.783,421.127c0,5.113-4.069,9.277-9.067,9.277H62.563c-5.002,0-9.071-4.163-9.071-9.277
				V272.932c0-5.113,4.069-9.277,9.071-9.277h60.153c4.998,0,9.067,4.163,9.067,9.277V421.127z"/>
		</g>
		<rect x="53.514" y="273.754" style="fill:#CEFBCE;" width="78.268" height="22.17"/>
		<g>
			<defs>
				<rect id="SVGID_1_" x="53.514" y="273.754" width="78.268" height="22.17"/>
			</defs>
			<clipPath id="SVGID_00000098906149029961971650000009211441963780183701_">
				<use xlink:href="#SVGID_1_"  style="overflow:visible;"/>
			</clipPath>
			<g style="clip-path:url(#SVGID_00000098906149029961971650000009211441963780183701_);">
				<path style="fill:#70AC92;" d="M131.07,287.036v15.383H54.227v-3.834c6.22-0.771,11.328-4.113,16.915-6.109
					c2.873-1.029,5.944-1.728,9.142-1.621c3.225,0.107,6.319,0.881,9.445,1.432c3.09,0.544,6.206,0.791,9.296,0.117
					c2.746-0.602,5.217-1.731,7.62-2.88c2.425-1.16,4.828-2.382,7.475-3.245c2.511-0.816,5.194-1.218,7.927-1.153
					C125.199,285.201,128.324,285.866,131.07,287.036z"/>
				<path style="fill:#A7D3B0;" d="M131.07,299.23v3.189H62.652c4.306-1.08,8.161-2.938,11.809-4.811
					c4.7-2.409,9.378-4.976,15.01-6.292c2.677-0.624,5.537-0.958,8.367-0.783c2.619,0.162,5.094,0.787,7.391,1.647
					c4.691,1.751,8.662,4.315,13.644,5.72C122.722,298.982,126.93,299.435,131.07,299.23z"/>
				<circle style="fill:#A7D3B0;" cx="83.288" cy="285.119" r="4.251"/>
			</g>
		</g>
		<g>
			<path style="fill:#5F947A;" d="M131.761,272.876v5.778H53.489v-5.778c0-5.134,4.161-9.295,9.306-9.295h59.67
				C127.599,263.581,131.761,267.742,131.761,272.876z"/>
			<g>
				<path style="fill:#CEFBCE;" d="M129.825,275.983c0,0.391-0.13,0.748-0.34,1.006c-0.209,0.258-0.497,0.418-0.815,0.418h-17.816
					c-0.634,0-1.155-0.641-1.155-1.425c0-0.393,0.13-0.748,0.34-1.008c0.209-0.258,0.499-0.418,0.815-0.418h17.816
					C129.304,274.557,129.825,275.198,129.825,275.983z"/>
				<g>
					<g>
						<path style="fill:#5F947A;" d="M127.92,276.634c-0.48,0-0.871-0.391-0.871-0.871c0-0.48,0.391-0.871,0.871-0.871
							c0.48,0,0.871,0.391,0.871,0.871C128.79,276.243,128.4,276.634,127.92,276.634z M127.92,275.195
							c-0.313,0-0.568,0.255-0.568,0.568c0,0.313,0.255,0.568,0.568,0.568c0.313,0,0.568-0.255,0.568-0.568
							C128.488,275.45,128.233,275.195,127.92,275.195z"/>
					</g>
					<g>
						<path style="fill:#5F947A;" d="M126.762,277.073c-0.039,0-0.078-0.015-0.107-0.044c-0.059-0.059-0.059-0.155,0-0.214
							l0.639-0.639c0.059-0.059,0.155-0.059,0.214,0c0.059,0.059,0.059,0.155,0,0.214l-0.639,0.639
							C126.839,277.058,126.8,277.073,126.762,277.073z"/>
					</g>
				</g>
			</g>
			<g>
				<path style="fill:#CEFBCE;" d="M57.155,273.678c0-0.208,0.232-0.372,0.514-0.372h4.788c0.282,0,0.514,0.164,0.514,0.372
					c0,0.208-0.232,0.38-0.514,0.38h-4.788C57.387,274.057,57.155,273.886,57.155,273.678z"/>
				<path style="fill:#CEFBCE;" d="M62.971,275.107c0,0.208-0.232,0.38-0.514,0.38h-4.788c-0.282,0-0.514-0.171-0.514-0.38
					c0-0.208,0.232-0.38,0.514-0.38h4.788C62.739,274.727,62.971,274.898,62.971,275.107z"/>
				<path style="fill:#CEFBCE;" d="M62.971,276.625c0,0.208-0.232,0.379-0.514,0.379h-4.788c-0.282,0-0.514-0.171-0.514-0.379
					s0.232-0.38,0.514-0.38h4.788C62.739,276.245,62.971,276.417,62.971,276.625z"/>
			</g>
		</g>
		<rect x="53.514" y="305.362" style="fill:#70AC92;" width="32.03" height="2.441"/>
		<path style="fill:#70AC92;" d="M70.889,386.218c0,0.376-0.156,0.721-0.404,0.97c-0.248,0.251-0.591,0.404-0.969,0.404H58.531
			c-0.757,0-1.376-0.619-1.376-1.374c0-0.378,0.153-0.721,0.404-0.969c0.251-0.251,0.594-0.404,0.972-0.404h10.984
			C70.27,384.845,70.889,385.461,70.889,386.218z"/>
		<g>
			<defs>
				<rect id="SVGID_00000012435012009310133140000008538405429022401210_" x="57.122" y="314.599" width="70.233" height="47.821"/>
			</defs>
			<clipPath id="SVGID_00000062880272463997813100000004173651822905740714_">
				<use xlink:href="#SVGID_00000012435012009310133140000008538405429022401210_"  style="overflow:visible;"/>
			</clipPath>
			
				<rect x="57.122" y="314.599" style="clip-path:url(#SVGID_00000062880272463997813100000004173651822905740714_);fill:#CEFBCE;" width="70.233" height="47.821"/>
			
				<circle style="clip-path:url(#SVGID_00000062880272463997813100000004173651822905740714_);fill:#A7D3B0;" cx="101.691" cy="330.422" r="9.453"/>
			<path style="clip-path:url(#SVGID_00000062880272463997813100000004173651822905740714_);fill:#A7D3B0;" d="M60.077,343.343
				c-1.845-1.392-4.107-2.129-6.498-2.285v23.348h70.585v-13.449C103.41,361.928,80.368,356.098,60.077,343.343z"/>
			<path style="clip-path:url(#SVGID_00000062880272463997813100000004173651822905740714_);fill:#70AC92;" d="M127.359,335.977
				v26.552H70.195c3.183-3.149,7.164-5.398,11.37-6.928c4.768-1.732,9.705-2.384,14.732-2.856c2.688-0.247,5.398-0.529,7.985-1.35
				c2.564-0.798,4.746-2.204,6.601-4.127c3.43-3.576,5.915-7.996,10.661-10.02C123.389,336.461,125.369,336.033,127.359,335.977z"/>
		</g>
		<g>
			<defs>
				<rect id="SVGID_00000119099530580438531290000011759897107137248396_" x="58.674" y="393.128" width="29.043" height="19.775"/>
			</defs>
			<clipPath id="SVGID_00000080182818627501969400000009047804962626072241_">
				<use xlink:href="#SVGID_00000119099530580438531290000011759897107137248396_"  style="overflow:visible;"/>
			</clipPath>
			
				<rect x="58.674" y="393.128" style="clip-path:url(#SVGID_00000080182818627501969400000009047804962626072241_);fill:#70AC92;" width="29.043" height="19.775"/>
			<path style="clip-path:url(#SVGID_00000080182818627501969400000009047804962626072241_);fill:#A7D3B0;" d="M70.114,399.106
				c0,2.159-1.75,3.909-3.909,3.909c-2.159,0-3.909-1.75-3.909-3.909c0-2.159,1.75-3.909,3.909-3.909
				C68.363,395.197,70.114,396.947,70.114,399.106z"/>
			<path style="clip-path:url(#SVGID_00000080182818627501969400000009047804962626072241_);fill:#A7D3B0;" d="M57.761,414.586
				v-7.573c0,0,2.347-3.612,11.889-1.318c9.543,2.294,17.469-0.469,20.232-3.546v12.436H57.761z"/>
			<path style="clip-path:url(#SVGID_00000080182818627501969400000009047804962626072241_);fill:#97CC96;" d="M89.882,414.586
				v-14.001c0,0-8.917,1.304-17.417,7.822c-8.5,6.518-17.072,1.331-17.072,1.331v5.761L89.882,414.586z"/>
		</g>
		<g>
			<defs>
				<rect id="SVGID_00000163776781171996183390000016812840575984240529_" x="97.558" y="393.128" width="29.043" height="19.775"/>
			</defs>
			<clipPath id="SVGID_00000103257198385749533350000000758172593651284894_">
				<use xlink:href="#SVGID_00000163776781171996183390000016812840575984240529_"  style="overflow:visible;"/>
			</clipPath>
			
				<rect x="97.558" y="393.128" style="clip-path:url(#SVGID_00000103257198385749533350000000758172593651284894_);fill:#97CC96;" width="29.043" height="19.775"/>
			<path style="clip-path:url(#SVGID_00000103257198385749533350000000758172593651284894_);fill:#70AC92;" d="M108.997,399.106
				c0,2.159-1.75,3.909-3.909,3.909c-2.159,0-3.909-1.75-3.909-3.909c0-2.159,1.75-3.909,3.909-3.909
				C107.247,395.197,108.997,396.947,108.997,399.106z"/>
			<path style="clip-path:url(#SVGID_00000103257198385749533350000000758172593651284894_);fill:#70AC92;" d="M96.644,414.586
				v-7.573c0,0,2.346-3.612,11.889-1.318c9.543,2.294,17.469-0.469,20.232-3.546v12.436H96.644z"/>
			<path style="clip-path:url(#SVGID_00000103257198385749533350000000758172593651284894_);fill:#A7D3B0;" d="M128.766,414.586
				v-14.001c0,0-8.917,1.304-17.416,7.822c-8.5,6.518-17.072,1.331-17.072,1.331v5.761L128.766,414.586z"/>
		</g>
		<g>
			<path style="fill:#202135;" d="M122.716,263.655H62.563c-5.002,0-9.071,4.163-9.071,9.277v148.195
				c0,5.113,4.069,9.277,9.071,9.277h60.153c4.998,0,9.067-4.163,9.067-9.277V272.932
				C131.783,267.818,127.714,263.655,122.716,263.655z M129.804,421.127c0,4.025-3.178,7.298-7.088,7.298H62.563
				c-3.91,0-7.092-3.273-7.092-7.298V272.932c0-4.025,3.182-7.298,7.092-7.298h5.375c1.821,0,3.455,1.112,4.12,2.806v0.004
				c0.665,1.694,2.299,2.806,4.12,2.806h32.92c1.821,0,3.455-1.112,4.12-2.806v-0.004c0.665-1.694,2.299-2.806,4.12-2.806h5.379
				c3.91,0,7.088,3.273,7.088,7.298V421.127z"/>
			<rect x="81.855" y="263.643" style="fill:#E5E7EB;" width="21.564" height="1.21"/>
			<circle style="fill:#7DBFE6;" cx="77.047" cy="267.923" r="1.65"/>
			<path style="fill:#FFFFFF;" d="M55.471,272.93c0.515,47.382,0.519,100.539,0,147.921
				C54.951,373.469,54.956,320.312,55.471,272.93L55.471,272.93z"/>
		</g>
	</g>
	<g>
		<g>
			<path style="fill:#CBCFD7;" d="M305.831,214.27c0.004,0.4-0.075,0.807-0.241,1.199c-1.698,3.946-5.58,6.503-9.878,6.503H57.356
				c-4.298,0-8.181-2.557-9.878-6.503c-0.162-0.38-0.241-0.776-0.241-1.163c0-1.14,0.665-2.224,1.777-2.707l26.722-15.087h201.596
				l26.722,15.087C305.154,212.078,305.815,213.142,305.831,214.27z"/>
			<path style="fill:#202135;" d="M276.87,69.76v126.753H76.197V69.76c0-3.19,2.584-5.778,5.774-5.778h189.126
				C274.286,63.981,276.87,66.57,276.87,69.76z"/>
			<rect x="81.311" y="71.243" style="fill:#FFFFFF;" width="190.445" height="119.482"/>
			<g>
				<path style="fill:#676D77;" d="M277.266,196.512h-0.792V69.759c0-2.968-2.413-5.382-5.379-5.382H81.971
					c-2.966,0-5.378,2.415-5.378,5.382v126.753h-0.792V69.759c0-3.404,2.768-6.174,6.17-6.174h189.126c3.402,0,6.17,2.77,6.17,6.174
					V196.512z"/>
			</g>
			<rect x="159.37" y="214.709" style="fill:#202135;" width="34.326" height="0.828"/>
			<path style="fill:#8F97A2;" d="M278.998,192.444v2.351c0,0.946-0.772,1.718-1.718,1.718H75.787c-0.946,0-1.718-0.772-1.718-1.718
				v-2.351c0-0.946,0.772-1.718,1.718-1.718H277.28C278.226,190.726,278.998,191.498,278.998,192.444z"/>
			<polygon style="fill:#AAAFBA;" points="285.144,206.747 67.923,206.747 81.005,197.603 272.062,197.603 			"/>
			<path style="fill:#AAAFBA;" d="M205.62,212.77h-58.169c-2.064,0-3.149-1.314-1.766-2.137l4.506-2.686
				c0.45-0.268,1.092-0.422,1.766-0.422h49.154c0.674,0,1.315,0.153,1.766,0.422l4.506,2.686
				C208.765,211.455,207.68,212.77,205.62,212.77z"/>
			<path style="fill:#AAAFBA;" d="M305.831,214.27c0.004,0.4-0.075,0.807-0.241,1.199c-1.698,3.946-5.58,6.503-9.878,6.503H57.356
				c-4.298,0-8.181-2.557-9.878-6.503c-0.162-0.38-0.241-0.776-0.241-1.163h258.353C305.672,214.294,305.752,214.282,305.831,214.27
				z"/>
			<path style="fill:#676D77;" d="M47.236,214.306c89.436-0.808,169.08-0.806,258.595-0.036
				C216.294,215.064,136.695,215.09,47.236,214.306L47.236,214.306z"/>
			<rect x="153.979" y="214.709" style="fill:#676D77;" width="45.108" height="2.861"/>
			<circle style="fill:#7DBFE6;" cx="158.155" cy="67.536" r="1.65"/>
		</g>
		<g>
			<rect x="81.311" y="71.243" style="fill:#9DA2AD;" width="190.445" height="8.333"/>
			<g>
				<path style="fill:#AAAFBA;" d="M261.449,75.41c0,0.929-0.753,1.681-1.681,1.681c-0.929,0-1.681-0.753-1.681-1.681
					c0-0.929,0.753-1.681,1.681-1.681C260.696,73.729,261.449,74.481,261.449,75.41z"/>
				<path style="fill:#8B929D;" d="M255.564,75.41c0,0.929-0.753,1.681-1.681,1.681s-1.681-0.753-1.681-1.681
					c0-0.929,0.753-1.681,1.681-1.681S255.564,74.481,255.564,75.41z"/>
				<path style="fill:#E5E7EB;" d="M267.334,75.41c0,0.929-0.753,1.681-1.681,1.681c-0.929,0-1.681-0.753-1.681-1.681
					c0-0.929,0.753-1.681,1.681-1.681C266.581,73.729,267.334,74.481,267.334,75.41z"/>
			</g>
			<path style="fill:#E5E7EB;" d="M239.378,75.411c0,0.621-0.252,1.185-0.663,1.593c-0.408,0.411-0.972,0.663-1.596,0.663H125.867
				c-1.242,0-2.26-1.015-2.26-2.257c0-0.621,0.255-1.185,0.663-1.596c0.411-0.408,0.975-0.663,1.596-0.663h111.251
				C238.363,73.152,239.378,74.17,239.378,75.411z"/>
			<path style="fill:#AAAFBA;" d="M121.886,75.408c0,0.624-0.255,1.188-0.663,1.596c-0.408,0.411-0.972,0.663-1.593,0.663h-5.968
				c-1.242,0-2.257-1.015-2.257-2.26c0-0.621,0.252-1.185,0.663-1.593c0.408-0.408,0.972-0.663,1.593-0.663h5.968
				C120.871,73.152,121.886,74.167,121.886,75.408z"/>
			<g>
				<path style="fill:#8B929D;" d="M86.579,77.415c-0.082,0-0.164-0.031-0.227-0.093l-1.701-1.682
					c-0.061-0.061-0.096-0.144-0.096-0.23c0-0.086,0.035-0.169,0.096-0.23l1.701-1.682c0.127-0.126,0.332-0.124,0.457,0.003
					c0.125,0.127,0.124,0.332-0.003,0.457l-1.469,1.452l1.469,1.452c0.127,0.126,0.128,0.33,0.003,0.457
					C86.746,77.383,86.663,77.415,86.579,77.415z"/>
			</g>
			<g>
				<path style="fill:#8B929D;" d="M95.017,73.405c0.082,0,0.164,0.031,0.227,0.093l1.702,1.682c0.061,0.061,0.096,0.144,0.096,0.23
					c0,0.086-0.035,0.169-0.096,0.23l-1.702,1.682c-0.127,0.126-0.332,0.124-0.457-0.003c-0.125-0.127-0.124-0.332,0.003-0.457
					l1.469-1.452l-1.469-1.452c-0.127-0.126-0.128-0.33-0.003-0.457C94.85,73.437,94.933,73.405,95.017,73.405z"/>
			</g>
		</g>
		<rect x="81.311" y="79.576" style="fill:#CEFBCE;" width="190.445" height="32.117"/>
		<g>
			<defs>
				<rect id="SVGID_00000039109027519321005920000016464751789909474231_" x="81.311" y="79.576" width="190.445" height="32.117"/>
			</defs>
			<clipPath id="SVGID_00000101820757012207616070000011225186255405048464_">
				<use xlink:href="#SVGID_00000039109027519321005920000016464751789909474231_"  style="overflow:visible;"/>
			</clipPath>
			<g style="clip-path:url(#SVGID_00000101820757012207616070000011225186255405048464_);">
				<path style="fill:#70AC92;" d="M274.235,93.53v24.708H150.814v-6.158c9.989-1.238,18.194-6.605,27.168-9.811
					c4.614-1.653,9.547-2.775,14.683-2.604c5.18,0.171,10.149,1.415,15.169,2.299c4.962,0.873,9.968,1.271,14.93,0.188
					c4.411-0.967,8.379-2.78,12.238-4.626c3.896-1.863,7.755-3.825,12.006-5.212c4.033-1.31,8.343-1.957,12.732-1.852
					C264.804,90.584,269.824,91.651,274.235,93.53z"/>
				<path style="fill:#A7D3B0;" d="M274.235,113.116v5.122h-109.89c6.917-1.735,13.107-4.719,18.967-7.727
					c7.549-3.869,15.063-7.993,24.108-10.106c4.299-1.003,8.894-1.539,13.438-1.258c4.206,0.261,8.182,1.263,11.87,2.645
					c7.535,2.812,13.912,6.931,21.915,9.187C260.826,112.718,267.584,113.445,274.235,113.116z"/>
				<path style="fill:#A7D3B0;" d="M204.318,90.451c0,3.771-3.057,6.828-6.828,6.828c-3.771,0-6.828-3.057-6.828-6.828
					c0-3.771,3.057-6.828,6.828-6.828C201.261,83.623,204.318,86.68,204.318,90.451z"/>
			</g>
		</g>
		<g>
			<rect x="81.311" y="111.693" style="fill:#5F947A;" width="190.445" height="7.093"/>
			<g>
				<path style="fill:#CEFBCE;" d="M239.795,115.241c0,0.566-0.188,1.084-0.493,1.458c-0.303,0.374-0.72,0.606-1.181,0.606h-25.81
					c-0.919,0-1.674-0.929-1.674-2.064c0-0.569,0.188-1.084,0.493-1.461c0.303-0.374,0.722-0.606,1.181-0.606h25.81
					C239.04,113.174,239.795,114.104,239.795,115.241z"/>
				<g>
					<g>
						<path style="fill:#5F947A;" d="M237.035,116.183c-0.696,0-1.262-0.566-1.262-1.262c0-0.696,0.566-1.261,1.262-1.261
							c0.696,0,1.261,0.566,1.261,1.261C238.297,115.618,237.731,116.183,237.035,116.183z M237.035,114.099
							c-0.454,0-0.823,0.369-0.823,0.823c0,0.454,0.369,0.823,0.823,0.823c0.453,0,0.823-0.369,0.823-0.823
							C237.858,114.468,237.489,114.099,237.035,114.099z"/>
					</g>
					<g>
						<path style="fill:#5F947A;" d="M235.358,116.819c-0.056,0-0.112-0.021-0.155-0.064c-0.086-0.086-0.086-0.225,0-0.31
							l0.925-0.925c0.086-0.086,0.225-0.086,0.31,0c0.086,0.086,0.086,0.225,0,0.31l-0.925,0.925
							C235.47,116.798,235.414,116.819,235.358,116.819z"/>
					</g>
				</g>
			</g>
			<g>
				<path style="fill:#CEFBCE;" d="M90.969,113.959c0-0.181,0.148-0.323,0.329-0.323h3.066c0.181,0,0.329,0.142,0.329,0.323
					c0,0.181-0.148,0.329-0.329,0.329h-3.066C91.118,114.288,90.969,114.139,90.969,113.959z"/>
				<path style="fill:#CEFBCE;" d="M94.693,115.198c0,0.181-0.148,0.329-0.329,0.329h-3.066c-0.181,0-0.329-0.148-0.329-0.329
					s0.148-0.329,0.329-0.329h3.066C94.545,114.869,94.693,115.017,94.693,115.198z"/>
				<path style="fill:#CEFBCE;" d="M94.693,116.514c0,0.181-0.148,0.329-0.329,0.329h-3.066c-0.181,0-0.329-0.148-0.329-0.329
					c0-0.181,0.148-0.329,0.329-0.329h3.066C94.545,116.185,94.693,116.334,94.693,116.514z"/>
			</g>
		</g>
		<rect x="81.311" y="123.908" style="fill:#70AC92;" width="46.47" height="4.764"/>
		<g>
			<defs>
				<rect id="SVGID_00000104684970735711432000000000092642110182693563_" x="90.36" y="134.334" width="48.247" height="32.85"/>
			</defs>
			<clipPath id="SVGID_00000029025915904649108180000012341796570720513920_">
				<use xlink:href="#SVGID_00000104684970735711432000000000092642110182693563_"  style="overflow:visible;"/>
			</clipPath>
			
				<rect x="90.36" y="134.334" style="clip-path:url(#SVGID_00000029025915904649108180000012341796570720513920_);fill:#70AC92;" width="48.247" height="32.85"/>
			<path style="clip-path:url(#SVGID_00000029025915904649108180000012341796570720513920_);fill:#A7D3B0;" d="M109.363,144.266
				c0,3.586-2.907,6.494-6.494,6.494c-3.586,0-6.494-2.907-6.494-6.494c0-3.586,2.907-6.494,6.494-6.494
				C106.456,137.772,109.363,140.679,109.363,144.266z"/>
			<path style="clip-path:url(#SVGID_00000029025915904649108180000012341796570720513920_);fill:#A7D3B0;" d="M88.843,169.981
				v-12.579c0,0,3.898-6.001,19.751-2.189c15.852,3.812,29.019-0.78,33.61-5.891v20.659H88.843z"/>
			<path style="clip-path:url(#SVGID_00000029025915904649108180000012341796570720513920_);fill:#97CC96;" d="M142.204,169.981
				v-23.258c0,0-14.813,2.166-28.933,12.994c-14.12,10.828-28.36,2.211-28.36,2.211v9.57L142.204,169.981z"/>
		</g>
		<g>
			<defs>
				<rect id="SVGID_00000013177215840937874090000000619225481662828986_" x="150.881" y="134.288" width="48.247" height="32.85"/>
			</defs>
			<clipPath id="SVGID_00000066496271720655820670000001450916602515828927_">
				<use xlink:href="#SVGID_00000013177215840937874090000000619225481662828986_"  style="overflow:visible;"/>
			</clipPath>
			
				<rect x="150.881" y="134.288" style="clip-path:url(#SVGID_00000066496271720655820670000001450916602515828927_);fill:#97CC96;" width="48.247" height="32.85"/>
			
				<circle style="clip-path:url(#SVGID_00000066496271720655820670000001450916602515828927_);fill:#70AC92;" cx="163.39" cy="144.22" r="6.494"/>
			<path style="clip-path:url(#SVGID_00000066496271720655820670000001450916602515828927_);fill:#70AC92;" d="M149.363,169.935
				v-12.58c0,0,3.898-6.001,19.751-2.189c15.852,3.811,29.019-0.78,33.61-5.891v20.659H149.363z"/>
			<path style="clip-path:url(#SVGID_00000066496271720655820670000001450916602515828927_);fill:#A7D3B0;" d="M202.724,169.935
				v-23.258c0,0-14.813,2.166-28.933,12.994c-14.12,10.828-28.36,2.211-28.36,2.211v9.57L202.724,169.935z"/>
		</g>
		<g>
			<defs>
				<rect id="SVGID_00000183240601903940048740000017973035943445124003_" x="212.491" y="134.288" width="48.247" height="32.85"/>
			</defs>
			<clipPath id="SVGID_00000021097789750321884000000002194820819637552807_">
				<use xlink:href="#SVGID_00000183240601903940048740000017973035943445124003_"  style="overflow:visible;"/>
			</clipPath>
			
				<rect x="212.491" y="134.288" style="clip-path:url(#SVGID_00000021097789750321884000000002194820819637552807_);fill:#70AC92;" width="48.247" height="32.85"/>
			<path style="clip-path:url(#SVGID_00000021097789750321884000000002194820819637552807_);fill:#A7D3B0;" d="M231.493,144.22
				c0,3.586-2.907,6.494-6.494,6.494c-3.586,0-6.494-2.907-6.494-6.494c0-3.586,2.907-6.494,6.494-6.494
				C228.586,137.726,231.493,140.633,231.493,144.22z"/>
			<path style="clip-path:url(#SVGID_00000021097789750321884000000002194820819637552807_);fill:#A7D3B0;" d="M210.973,169.935
				v-12.58c0,0,3.898-6.001,19.75-2.189c15.852,3.811,29.019-0.78,33.61-5.891v20.659H210.973z"/>
			<path style="clip-path:url(#SVGID_00000021097789750321884000000002194820819637552807_);fill:#97CC96;" d="M264.334,169.935
				v-23.258c0,0-14.813,2.166-28.933,12.994c-14.12,10.828-28.36,2.211-28.36,2.211v9.57L264.334,169.935z"/>
		</g>
	</g>
	<g>
		<g>
			<g>
				<path style="fill:#CBCFD7;" d="M382.021,473.779c0,2.224-1.805,4.029-4.029,4.029H239.501c-2.224,0-4.029-1.805-4.029-4.029
					c0-1.112,0.451-2.121,1.179-2.85c0.728-0.728,1.737-1.179,2.85-1.179h13.203c12.395,0,22.444-10.049,22.444-22.444v-11.442
					h67.197v11.442c0,12.395,10.049,22.444,22.444,22.444h13.203C380.216,469.75,382.021,471.555,382.021,473.779z"/>
				<path style="fill:#AAAFBA;" d="M364.789,469.75H252.703c12.395,0,22.444-10.049,22.444-22.444v-11.442h67.197v11.442
					C342.345,459.702,352.393,469.75,364.789,469.75z"/>
				<polygon style="fill:#8F97A2;" points="342.345,438.829 275.147,445.482 275.147,435.864 342.345,435.864 				"/>
			</g>
			<g>
				<path style="fill:#202135;" d="M447.429,256.593v170.089H167.855V256.593c0-4.281,3.468-7.754,7.748-7.754h264.078
					C443.961,248.839,447.429,252.313,447.429,256.593z"/>
				<rect x="174.718" y="258.584" style="fill:#FFFFFF;" width="265.849" height="160.333"/>
				<g>
					<path style="fill:#676D77;" d="M447.96,426.683h-1.062v-170.09c0-3.983-3.238-7.222-7.217-7.222H175.603
						c-3.98,0-7.217,3.24-7.217,7.222v170.09h-1.062v-170.09c0-4.568,3.714-8.285,8.279-8.285h264.078
						c4.565,0,8.28,3.716,8.28,8.285V426.683z"/>
				</g>
				<path style="fill:#7DBFE6;" d="M281.154,253.61c0,1.223-0.992,2.215-2.215,2.215c-1.223,0-2.215-0.992-2.215-2.215
					c0-1.223,0.991-2.214,2.215-2.214C280.163,251.395,281.154,252.387,281.154,253.61z"/>
				<path style="fill:#CBCFD7;" d="M447.96,421.825v1.477c0,7.17-5.81,12.98-12.98,12.98H180.303c-7.17,0-12.98-5.81-12.98-12.98
					v-1.477H447.96z"/>
				<path style="fill:#AAAFBA;" d="M198.339,429.053c0,2.285-1.853,4.138-4.138,4.138c-2.285,0-4.138-1.853-4.138-4.138
					s1.853-4.138,4.138-4.138C196.487,424.915,198.339,426.768,198.339,429.053z"/>
				<path style="fill:#676D77;" d="M447.961,408.708l0.12,9.823l0.039,4.913c0.052,5.036-3.077,9.872-7.673,11.951
					c-2.26,1.103-4.845,1.3-7.324,1.253l-2.456,0.022l-39.293,0.222c-63.947,0.279-142.761,0.207-206.754-0.219l-2.456-0.022
					l-1.228-0.011c-2.079,0.019-4.209-0.35-6.097-1.242c-4.592-2.079-7.73-6.916-7.673-11.952l0.039-4.913l0.12-9.823l0.12,9.823
					c0.123,3.253-0.327,6.635,1.049,9.617c2.027,4.927,7.163,8.059,12.442,7.777c0.72-0.007,2.921-0.026,3.684-0.034
					c77.235-0.516,168.814-0.512,246.047,0.002l2.456,0.022l1.228,0.011l0.614,0.006l0.598-0.024
					c4.837-0.12,9.383-3.273,11.232-7.76c1.376-2.982,0.925-6.365,1.048-9.617L447.961,408.708L447.961,408.708z"/>
				<g>
					<path style="fill:#676D77;" d="M194.201,434.432c-2.966,0-5.379-2.413-5.379-5.379s2.413-5.379,5.379-5.379
						s5.379,2.413,5.379,5.379S197.167,434.432,194.201,434.432z M194.201,424.309c-2.616,0-4.744,2.128-4.744,4.744
						c0,2.616,2.128,4.744,4.744,4.744c2.616,0,4.744-2.128,4.744-4.744C198.945,426.437,196.817,424.309,194.201,424.309z"/>
				</g>
				<path style="fill:#AAAFBA;" d="M241.132,430.939h-34.385c-0.917,0-1.668-0.751-1.668-1.668v-0.436
					c0-0.917,0.751-1.668,1.668-1.668h34.385c0.917,0,1.668,0.75,1.668,1.668v0.436C242.8,430.189,242.049,430.939,241.132,430.939z
					"/>
			</g>
		</g>
		<g>
			<rect x="174.718" y="258.584" style="fill:#9DA2AD;" width="265.849" height="11.633"/>
			<g>
				<circle style="fill:#AAAFBA;" cx="423.831" cy="264.4" r="2.347"/>
				<circle style="fill:#8B929D;" cx="415.616" cy="264.4" r="2.347"/>
				<path style="fill:#E5E7EB;" d="M434.393,264.4c0,1.296-1.051,2.347-2.347,2.347c-1.296,0-2.347-1.051-2.347-2.347
					c0-1.296,1.051-2.347,2.347-2.347C433.342,262.053,434.393,263.104,434.393,264.4z"/>
			</g>
			<path style="fill:#E5E7EB;" d="M395.368,264.402c0,0.867-0.352,1.654-0.926,2.224c-0.57,0.574-1.357,0.926-2.228,0.926H236.915
				c-1.734,0-3.154-1.417-3.154-3.15c0-0.867,0.356-1.654,0.926-2.228c0.574-0.57,1.361-0.926,2.228-0.926h155.299
				C393.952,261.248,395.368,262.669,395.368,264.402z"/>
			<path style="fill:#AAAFBA;" d="M231.358,264.398c0,0.871-0.356,1.658-0.926,2.228c-0.57,0.574-1.357,0.926-2.224,0.926h-8.331
				c-1.733,0-3.15-1.417-3.15-3.154c0-0.867,0.352-1.654,0.926-2.224c0.57-0.57,1.357-0.926,2.224-0.926h8.331
				C229.942,261.248,231.358,262.665,231.358,264.398z"/>
			<g>
				<path style="fill:#8B929D;" d="M182.072,267.199c-0.115,0-0.229-0.043-0.317-0.13l-2.375-2.348
					c-0.086-0.085-0.134-0.2-0.134-0.321c0-0.121,0.048-0.236,0.134-0.321l2.375-2.348c0.177-0.175,0.463-0.173,0.638,0.004
					c0.175,0.177,0.173,0.463-0.004,0.638l-2.051,2.027l2.051,2.027c0.177,0.175,0.179,0.461,0.004,0.638
					C182.305,267.155,182.189,267.199,182.072,267.199z"/>
			</g>
			<g>
				<path style="fill:#8B929D;" d="M193.85,261.601c0.115,0,0.229,0.043,0.317,0.13l2.375,2.348c0.086,0.085,0.134,0.2,0.134,0.321
					s-0.048,0.236-0.134,0.321l-2.375,2.348c-0.177,0.175-0.463,0.173-0.638-0.004c-0.175-0.177-0.174-0.463,0.004-0.638
					l2.051-2.027l-2.051-2.027c-0.177-0.175-0.179-0.461-0.004-0.638C193.617,261.646,193.734,261.601,193.85,261.601z"/>
			</g>
		</g>
		<rect x="174.718" y="270.217" style="fill:#CEFBCE;" width="265.849" height="44.832"/>
		<g>
			<defs>
				
					<rect id="SVGID_00000103959541071665957640000000587225573127889554_" x="174.718" y="270.217" width="265.849" height="44.832"/>
			</defs>
			<clipPath id="SVGID_00000069358324176321956920000014014435072528182437_">
				<use xlink:href="#SVGID_00000103959541071665957640000000587225573127889554_"  style="overflow:visible;"/>
			</clipPath>
			<g style="clip-path:url(#SVGID_00000069358324176321956920000014014435072528182437_);">
				<path style="fill:#70AC92;" d="M470.151,287.614v37.337H283.643v-9.305c15.095-1.871,27.494-9.982,41.055-14.826
					c6.972-2.497,14.427-4.193,22.189-3.934c7.827,0.259,15.337,2.138,22.923,3.475c7.499,1.32,15.063,1.921,22.561,0.284
					c6.665-1.462,12.662-4.202,18.494-6.991c5.887-2.815,11.719-5.78,18.143-7.877c6.095-1.98,12.607-2.957,19.24-2.798
					C455.9,283.162,463.486,284.774,470.151,287.614z"/>
				<path style="fill:#A7D3B0;" d="M470.151,317.211v7.74H304.09c10.452-2.622,19.807-7.131,28.662-11.677
					c11.408-5.846,22.762-12.078,36.43-15.272c6.497-1.515,13.44-2.325,20.307-1.902c6.356,0.394,12.364,1.909,17.938,3.996
					c11.387,4.249,21.024,10.474,33.117,13.883C449.888,316.609,460.101,317.708,470.151,317.211z"/>
				
					<ellipse transform="matrix(0.2287 -0.9735 0.9735 0.2287 -2.2961 563.0241)" style="fill:#A7D3B0;" cx="354.178" cy="282.961" rx="10.318" ry="10.318"/>
			</g>
		</g>
		<g>
			<rect x="174.718" y="315.049" style="fill:#5F947A;" width="265.849" height="9.902"/>
			<g>
				<path style="fill:#CEFBCE;" d="M395.95,320.002c0,0.79-0.263,1.513-0.688,2.035c-0.423,0.522-1.005,0.846-1.648,0.846h-36.029
					c-1.283,0-2.336-1.297-2.336-2.881c0-0.794,0.263-1.513,0.688-2.039c0.423-0.522,1.008-0.846,1.648-0.846h36.029
					C394.897,317.117,395.95,318.414,395.95,320.002z"/>
				<g>
					<g>
						<path style="fill:#5F947A;" d="M392.098,321.317c-0.971,0-1.761-0.79-1.761-1.761c0-0.971,0.79-1.761,1.761-1.761
							c0.971,0,1.761,0.79,1.761,1.761C393.859,320.527,393.069,321.317,392.098,321.317z M392.098,318.408
							c-0.633,0-1.148,0.515-1.148,1.148c0,0.633,0.515,1.148,1.148,1.148c0.633,0,1.148-0.515,1.148-1.148
							C393.246,318.923,392.731,318.408,392.098,318.408z"/>
					</g>
					<g>
						<path style="fill:#5F947A;" d="M389.756,322.204c-0.078,0-0.157-0.03-0.217-0.09c-0.12-0.12-0.12-0.313,0-0.433l1.291-1.292
							c0.12-0.12,0.314-0.12,0.433,0c0.12,0.12,0.12,0.314,0,0.433l-1.292,1.292C389.913,322.175,389.835,322.204,389.756,322.204z"
							/>
					</g>
				</g>
			</g>
			<g>
				<path style="fill:#CEFBCE;" d="M188.2,318.211c0-0.252,0.207-0.451,0.46-0.451h4.28c0.252,0,0.46,0.198,0.46,0.451
					c0,0.252-0.207,0.46-0.46,0.46h-4.28C188.407,318.671,188.2,318.464,188.2,318.211z"/>
				<path style="fill:#CEFBCE;" d="M193.399,319.941c0,0.252-0.207,0.46-0.46,0.46h-4.28c-0.252,0-0.46-0.207-0.46-0.46
					c0-0.252,0.207-0.46,0.46-0.46h4.28C193.191,319.482,193.399,319.689,193.399,319.941z"/>
				<path style="fill:#CEFBCE;" d="M193.399,321.779c0,0.252-0.207,0.46-0.46,0.46h-4.28c-0.252,0-0.46-0.207-0.46-0.46
					c0-0.252,0.207-0.46,0.46-0.46h4.28C193.191,321.32,193.399,321.527,193.399,321.779z"/>
			</g>
		</g>
		<rect x="174.718" y="332.1" style="fill:#70AC92;" width="64.869" height="6.65"/>
		<path style="fill:#70AC92;" d="M324.741,388.3c0,0.752-0.312,1.443-0.808,1.939c-0.496,0.501-1.182,0.808-1.939,0.808h-21.968
			c-1.514,0-2.752-1.238-2.752-2.747c0-0.757,0.307-1.443,0.808-1.939c0.501-0.501,1.187-0.808,1.944-0.808h21.968
			C323.503,385.553,324.741,386.786,324.741,388.3z"/>
		<g>
			<g>
				<defs>
					
						<rect id="SVGID_00000045618751648206611910000013690628285177819273_" x="187.35" y="346.654" width="67.255" height="45.793"/>
				</defs>
				<clipPath id="SVGID_00000040571280212930432720000001153292969445591188_">
					<use xlink:href="#SVGID_00000045618751648206611910000013690628285177819273_"  style="overflow:visible;"/>
				</clipPath>
				
					<rect x="187.35" y="346.654" style="clip-path:url(#SVGID_00000040571280212930432720000001153292969445591188_);fill:#CEFBCE;" width="67.255" height="45.793"/>
				
					<ellipse transform="matrix(0.923 -0.3848 0.3848 0.923 -121.512 116.3761)" style="clip-path:url(#SVGID_00000040571280212930432720000001153292969445591188_);fill:#A7D3B0;" cx="230.03" cy="361.807" rx="9.052" ry="9.052"/>
				<path style="clip-path:url(#SVGID_00000040571280212930432720000001153292969445591188_);fill:#A7D3B0;" d="M190.18,374.18
					c-1.766-1.333-3.933-2.039-6.222-2.188v22.358h67.592v-12.879C231.675,391.977,209.61,386.394,190.18,374.18z"/>
				<path style="clip-path:url(#SVGID_00000040571280212930432720000001153292969445591188_);fill:#70AC92;" d="M254.609,367.126
					v25.426h-54.74c3.048-3.015,6.86-5.169,10.888-6.634c4.566-1.658,9.294-2.283,14.108-2.735c2.574-0.237,5.169-0.506,7.646-1.292
					c2.455-0.765,4.545-2.111,6.321-3.952c3.285-3.425,5.665-7.657,10.209-9.595C250.807,367.589,252.703,367.18,254.609,367.126z"
					/>
			</g>
			<g>
				<defs>
					
						<rect id="SVGID_00000157991103320460992680000016722636537081135764_" x="258.105" y="346.654" width="30.99" height="21.101"/>
				</defs>
				<clipPath id="SVGID_00000101820677547805467420000013367262756999488700_">
					<use xlink:href="#SVGID_00000157991103320460992680000016722636537081135764_"  style="overflow:visible;"/>
				</clipPath>
				
					<rect x="258.105" y="346.654" style="clip-path:url(#SVGID_00000101820677547805467420000013367262756999488700_);fill:#70AC92;" width="30.99" height="21.101"/>
				<path style="clip-path:url(#SVGID_00000101820677547805467420000013367262756999488700_);fill:#A7D3B0;" d="M270.311,353.034
					c0,2.303-1.867,4.171-4.171,4.171c-2.304,0-4.171-1.867-4.171-4.171c0-2.304,1.867-4.171,4.171-4.171
					C268.444,348.863,270.311,350.73,270.311,353.034z"/>
				<path style="clip-path:url(#SVGID_00000101820677547805467420000013367262756999488700_);fill:#A7D3B0;" d="M257.13,369.551
					v-8.08c0,0,2.504-3.854,12.686-1.406c10.182,2.448,18.64-0.501,21.589-3.784v13.27H257.13z"/>
				<path style="clip-path:url(#SVGID_00000101820677547805467420000013367262756999488700_);fill:#97CC96;" d="M291.405,369.551
					v-14.939c0,0-9.515,1.391-18.584,8.346c-9.069,6.955-18.216,1.42-18.216,1.42v6.147L291.405,369.551z"/>
			</g>
			<g>
				<defs>
					
						<rect id="SVGID_00000088835046576315982900000006719749235719948203_" x="258.105" y="371.453" width="30.99" height="21.101"/>
				</defs>
				<clipPath id="SVGID_00000005253570501875514530000015476009599596626867_">
					<use xlink:href="#SVGID_00000088835046576315982900000006719749235719948203_"  style="overflow:visible;"/>
				</clipPath>
				
					<rect x="258.105" y="371.453" style="clip-path:url(#SVGID_00000005253570501875514530000015476009599596626867_);fill:#70AC92;" width="30.99" height="21.101"/>
				
					<circle style="clip-path:url(#SVGID_00000005253570501875514530000015476009599596626867_);fill:#A7D3B0;" cx="266.14" cy="377.833" r="4.171"/>
				<path style="clip-path:url(#SVGID_00000005253570501875514530000015476009599596626867_);fill:#A7D3B0;" d="M257.13,394.35
					v-8.08c0,0,2.504-3.854,12.686-1.406c10.182,2.448,18.64-0.501,21.589-3.783v13.27H257.13z"/>
				<path style="clip-path:url(#SVGID_00000005253570501875514530000015476009599596626867_);fill:#97CC96;" d="M291.405,394.35
					v-14.939c0,0-9.515,1.391-18.584,8.346c-9.069,6.955-18.216,1.42-18.216,1.42v6.147L291.405,394.35z"/>
			</g>
		</g>
	</g>
	<g>
		<g>
			<path style="fill:#202135;" d="M333.005,27.564H444.73c3.566,0,6.451,2.885,6.451,6.451v182.687c0,3.562-2.885,6.451-6.451,6.451
				H333.005c-3.562,0-6.451-2.889-6.451-6.451V34.015C326.553,30.449,329.443,27.564,333.005,27.564z"/>
			<g>
				<g>
					<g>
						<path style="fill:#676D77;" d="M327.345,34.015v182.687c0,3.123,2.541,5.66,5.659,5.66H444.73c3.119,0,5.659-2.537,5.659-5.66
							V34.015c0-3.119-2.541-5.659-5.659-5.659H333.005C329.886,28.355,327.345,30.896,327.345,34.015z M444.73,28.949
							c2.794,0,5.066,2.272,5.066,5.066v182.687c0,2.794-2.272,5.066-5.066,5.066H333.005c-2.794,0-5.066-2.272-5.066-5.066V34.015
							c0-2.794,2.272-5.066,5.066-5.066H444.73z"/>
					</g>
					<path style="fill:#CBCFD7;" d="M325.762,34.015v182.687c0,3.993,3.249,7.243,7.243,7.243H444.73
						c3.993,0,7.242-3.249,7.242-7.243V34.015c0-3.993-3.249-7.243-7.242-7.243H333.005
						C329.011,26.772,325.762,30.021,325.762,34.015z M444.73,28.355c3.119,0,5.659,2.541,5.659,5.659v182.687
						c0,3.123-2.541,5.66-5.659,5.66H333.005c-3.119,0-5.659-2.537-5.659-5.66V34.015c0-3.119,2.541-5.659,5.659-5.659H444.73z"/>
					<g>
						<path style="fill:#676D77;" d="M327.345,34.015v182.687c0,3.123,2.541,5.66,5.659,5.66H444.73c3.119,0,5.659-2.537,5.659-5.66
							V34.015c0-3.119-2.541-5.659-5.659-5.659H333.005C329.886,28.355,327.345,30.896,327.345,34.015z M444.73,28.949
							c2.794,0,5.066,2.272,5.066,5.066v182.687c0,2.794-2.272,5.066-5.066,5.066H333.005c-2.794,0-5.066-2.272-5.066-5.066V34.015
							c0-2.794,2.272-5.066,5.066-5.066H444.73z"/>
					</g>
					<g>
						<path style="fill:#676D77;" d="M327.345,34.015v182.687c0,3.123,2.541,5.66,5.659,5.66H444.73c3.119,0,5.659-2.537,5.659-5.66
							V34.015c0-3.119-2.541-5.659-5.659-5.659H333.005C329.886,28.355,327.345,30.896,327.345,34.015z M444.73,28.949
							c2.794,0,5.066,2.272,5.066,5.066v182.687c0,2.794-2.272,5.066-5.066,5.066H333.005c-2.794,0-5.066-2.272-5.066-5.066V34.015
							c0-2.794,2.272-5.066,5.066-5.066H444.73z"/>
					</g>
				</g>
			</g>
			<g>
				<path style="fill:#AAAFBA;" d="M324.97,34.015v182.687c0,4.429,3.605,8.034,8.034,8.034H444.73c4.429,0,8.034-3.605,8.034-8.034
					V34.015c0-4.429-3.606-8.034-8.034-8.034H333.005C328.576,25.981,324.97,29.586,324.97,34.015z M444.73,27.564
					c3.558,0,6.451,2.893,6.451,6.451v182.687c0,3.558-2.893,6.451-6.451,6.451H333.005c-3.558,0-6.451-2.893-6.451-6.451V34.015
					c0-3.558,2.893-6.451,6.451-6.451H444.73z"/>
			</g>
			<path style="fill:#FFFFFF;" d="M334.977,34.205h107.783c1.528,0,2.766,1.243,2.766,2.77v166.167c0,1.532-1.239,2.77-2.766,2.77
				H334.977c-1.532,0-2.77-1.239-2.77-2.77V36.975C332.207,35.447,333.446,34.205,334.977,34.205z"/>
			<g>
				<path style="fill:#676D77;" d="M399.839,214.272v0.477c0,1.004-0.821,1.825-1.825,1.825H379.72
					c-1.004,0-1.825-0.821-1.825-1.825v-0.477c0-1.004,0.821-1.825,1.825-1.825h18.294
					C399.018,212.448,399.839,213.269,399.839,214.272z"/>
				<path style="fill:#676D77;" d="M369.465,214.272v0.477c0,1.004-0.821,1.825-1.825,1.825h-12.456
					c-1.004,0-1.825-0.821-1.825-1.825v-0.477c0-1.004,0.821-1.825,1.825-1.825h12.456
					C368.644,212.448,369.465,213.269,369.465,214.272z"/>
				<path style="fill:#676D77;" d="M424.374,214.272v0.477c0,1.004-0.821,1.825-1.825,1.825h-12.456
					c-1.004,0-1.825-0.821-1.825-1.825v-0.477c0-1.004,0.821-1.825,1.825-1.825h12.456
					C423.553,212.448,424.374,213.269,424.374,214.272z"/>
			</g>
		</g>
		<path style="fill:#CEFBCE;" d="M445.576,66.321H332.191V36.707c0-1.382,1.12-2.502,2.503-2.502h108.38
			c1.382,0,2.503,1.12,2.503,2.502V66.321z"/>
		<g>
			<defs>
				<path id="SVGID_00000013190399061678424050000015896084185857240484_" d="M445.576,66.321H332.191V36.707
					c0-1.382,1.12-2.502,2.503-2.502h108.38c1.382,0,2.503,1.12,2.503,2.502V66.321z"/>
			</defs>
			<clipPath id="SVGID_00000127749646069742574130000014569614800642463142_">
				<use xlink:href="#SVGID_00000013190399061678424050000015896084185857240484_"  style="overflow:visible;"/>
			</clipPath>
			<g style="clip-path:url(#SVGID_00000127749646069742574130000014569614800642463142_);">
				<path style="fill:#70AC92;" d="M446.556,51.006v21.048H341.415v-5.246c8.51-1.055,15.5-5.627,23.144-8.358
					c3.931-1.408,8.133-2.364,12.508-2.218c4.413,0.146,8.646,1.205,12.923,1.959c4.227,0.744,8.491,1.083,12.719,0.16
					c3.757-0.824,7.138-2.368,10.426-3.941c3.319-1.587,6.606-3.258,10.228-4.44c3.436-1.116,7.107-1.667,10.846-1.577
					C438.522,48.496,442.798,49.405,446.556,51.006z"/>
				<path style="fill:#A7D3B0;" d="M446.556,67.69v4.363h-93.614c5.892-1.478,11.166-4.02,16.158-6.583
					c6.431-3.296,12.832-6.809,20.537-8.61c3.663-0.854,7.577-1.311,11.448-1.072c3.583,0.222,6.97,1.076,10.112,2.253
					c6.419,2.395,11.852,5.904,18.669,7.826C435.133,67.351,440.89,67.971,446.556,67.69z"/>
				<path style="fill:#A7D3B0;" d="M386.995,48.383c0,3.212-2.604,5.817-5.817,5.817c-3.213,0-5.817-2.604-5.817-5.817
					c0-3.213,2.604-5.817,5.817-5.817C384.391,42.566,386.995,45.17,386.995,48.383z"/>
			</g>
		</g>
		<g>
			<path style="fill:#5F947A;" d="M445.576,41.298H332.191v-4.591c0-1.382,1.12-2.502,2.503-2.502h108.38
				c1.382,0,2.503,1.12,2.503,2.502V41.298z"/>
			<g>
				<path style="fill:#CEFBCE;" d="M437.775,37.622c0,0.566-0.188,1.084-0.493,1.458c-0.303,0.374-0.72,0.606-1.181,0.606h-25.81
					c-0.919,0-1.674-0.929-1.674-2.064c0-0.569,0.188-1.084,0.493-1.461c0.303-0.374,0.722-0.606,1.181-0.606h25.81
					C437.02,35.555,437.775,36.485,437.775,37.622z"/>
				<g>
					<g>
						<path style="fill:#5F947A;" d="M435.015,38.564c-0.696,0-1.262-0.566-1.262-1.262c0-0.696,0.566-1.261,1.262-1.261
							c0.696,0,1.261,0.566,1.261,1.261C436.276,37.999,435.711,38.564,435.015,38.564z M435.015,36.48
							c-0.454,0-0.823,0.369-0.823,0.823c0,0.454,0.369,0.823,0.823,0.823c0.453,0,0.822-0.369,0.822-0.823
							C435.837,36.849,435.468,36.48,435.015,36.48z"/>
					</g>
					<g>
						<path style="fill:#5F947A;" d="M433.337,39.2c-0.056,0-0.112-0.021-0.155-0.064c-0.086-0.086-0.086-0.225,0-0.31l0.925-0.925
							c0.086-0.086,0.225-0.086,0.31,0s0.086,0.225,0,0.31l-0.925,0.925C433.45,39.179,433.393,39.2,433.337,39.2z"/>
					</g>
				</g>
			</g>
			<g>
				<path style="fill:#CEFBCE;" d="M336.909,35.664c0-0.208,0.216-0.371,0.478-0.371h4.455c0.263,0,0.478,0.163,0.478,0.371
					s-0.216,0.379-0.478,0.379h-4.455C337.125,36.043,336.909,35.872,336.909,35.664z"/>
				<path style="fill:#CEFBCE;" d="M342.32,37.09c0,0.208-0.216,0.379-0.478,0.379h-4.455c-0.263,0-0.478-0.171-0.478-0.379
					s0.216-0.379,0.478-0.379h4.455C342.104,36.711,342.32,36.882,342.32,37.09z"/>
				<path style="fill:#CEFBCE;" d="M342.32,38.605c0,0.208-0.216,0.379-0.478,0.379h-4.455c-0.263,0-0.478-0.171-0.478-0.379
					c0-0.208,0.216-0.379,0.478-0.379h4.455C342.104,38.227,342.32,38.397,342.32,38.605z"/>
			</g>
		</g>
		<rect x="332.191" y="79.995" style="fill:#70AC92;" width="46.401" height="3.536"/>
		<g>
			<defs>
				<rect id="SVGID_00000085228006531149000280000007797416176545709457_" x="339.527" y="89.72" width="45.396" height="30.91"/>
			</defs>
			<clipPath id="SVGID_00000114777994740452705870000005473691636026595263_">
				<use xlink:href="#SVGID_00000085228006531149000280000007797416176545709457_"  style="overflow:visible;"/>
			</clipPath>
			
				<rect x="339.527" y="89.72" style="clip-path:url(#SVGID_00000114777994740452705870000005473691636026595263_);fill:#70AC92;" width="45.396" height="30.91"/>
			<path style="clip-path:url(#SVGID_00000114777994740452705870000005473691636026595263_);fill:#A7D3B0;" d="M357.407,99.065
				c0,3.375-2.735,6.11-6.11,6.11s-6.11-2.735-6.11-6.11c0-3.374,2.736-6.11,6.11-6.11S357.407,95.69,357.407,99.065z"/>
			<path style="clip-path:url(#SVGID_00000114777994740452705870000005473691636026595263_);fill:#A7D3B0;" d="M338.099,123.261
				v-11.836c0,0,3.668-5.646,18.584-2.06c14.916,3.586,27.305-0.734,31.625-5.543v19.439H338.099z"/>
			<path style="clip-path:url(#SVGID_00000114777994740452705870000005473691636026595263_);fill:#97CC96;" d="M388.308,123.261
				v-21.884c0,0-13.938,2.038-27.223,12.226c-13.286,10.188-26.684,2.08-26.684,2.08v9.005L388.308,123.261z"/>
		</g>
		<g>
			<defs>
				<rect id="SVGID_00000144303305452538325770000008130216412620691879_" x="392.908" y="145.717" width="45.396" height="30.91"/>
			</defs>
			<clipPath id="SVGID_00000158731705371820077110000012288279137101455769_">
				<use xlink:href="#SVGID_00000144303305452538325770000008130216412620691879_"  style="overflow:visible;"/>
			</clipPath>
			
				<rect x="392.908" y="145.717" style="clip-path:url(#SVGID_00000158731705371820077110000012288279137101455769_);fill:#70AC92;" width="45.396" height="30.91"/>
			<path style="clip-path:url(#SVGID_00000158731705371820077110000012288279137101455769_);fill:#A7D3B0;" d="M410.789,155.062
				c0,3.374-2.736,6.11-6.11,6.11s-6.11-2.736-6.11-6.11c0-3.375,2.736-6.11,6.11-6.11S410.789,151.687,410.789,155.062z"/>
			<path style="clip-path:url(#SVGID_00000158731705371820077110000012288279137101455769_);fill:#A7D3B0;" d="M391.48,179.258
				v-11.836c0,0,3.668-5.646,18.584-2.06c14.916,3.586,27.305-0.734,31.625-5.542v19.439H391.48z"/>
			<path style="clip-path:url(#SVGID_00000158731705371820077110000012288279137101455769_);fill:#97CC96;" d="M441.689,179.258
				v-21.884c0,0-13.938,2.038-27.224,12.226c-13.286,10.188-26.684,2.08-26.684,2.08v9.005L441.689,179.258z"/>
		</g>
		<g>
			<defs>
				<rect id="SVGID_00000066498690157600802040000017942723060577745553_" x="393.087" y="89.72" width="45.396" height="30.91"/>
			</defs>
			<clipPath id="SVGID_00000075846428322752841900000017879069721797658797_">
				<use xlink:href="#SVGID_00000066498690157600802040000017942723060577745553_"  style="overflow:visible;"/>
			</clipPath>
			
				<rect x="393.087" y="89.72" style="clip-path:url(#SVGID_00000075846428322752841900000017879069721797658797_);fill:#A7D3B0;" width="45.396" height="30.91"/>
			<path style="clip-path:url(#SVGID_00000075846428322752841900000017879069721797658797_);fill:#70AC92;" d="M410.967,99.065
				c0,3.375-2.736,6.11-6.11,6.11c-3.374,0-6.11-2.735-6.11-6.11c0-3.374,2.736-6.11,6.11-6.11
				C408.232,92.955,410.967,95.69,410.967,99.065z"/>
			<path style="clip-path:url(#SVGID_00000075846428322752841900000017879069721797658797_);fill:#97CC96;" d="M391.659,123.261
				v-11.836c0,0,3.668-5.646,18.584-2.06c14.916,3.586,27.305-0.734,31.625-5.543v19.439H391.659z"/>
			<path style="clip-path:url(#SVGID_00000075846428322752841900000017879069721797658797_);fill:#70AC92;" d="M441.867,123.261
				v-21.884c0,0-13.938,2.038-27.223,12.226c-13.286,10.188-26.684,2.08-26.684,2.08v9.005L441.867,123.261z"/>
		</g>
		<g>
			<defs>
				<rect id="SVGID_00000160871847348092263080000008977611271977640887_" x="339.348" y="145.717" width="45.396" height="30.91"/>
			</defs>
			<clipPath id="SVGID_00000156588333409530783140000008950049680387153068_">
				<use xlink:href="#SVGID_00000160871847348092263080000008977611271977640887_"  style="overflow:visible;"/>
			</clipPath>
			
				<rect x="339.348" y="145.717" style="clip-path:url(#SVGID_00000156588333409530783140000008950049680387153068_);fill:#A7D3B0;" width="45.396" height="30.91"/>
			<path style="clip-path:url(#SVGID_00000156588333409530783140000008950049680387153068_);fill:#70AC92;" d="M357.229,155.062
				c0,3.374-2.736,6.11-6.11,6.11c-3.374,0-6.11-2.736-6.11-6.11c0-3.375,2.736-6.11,6.11-6.11
				C354.493,148.952,357.229,151.687,357.229,155.062z"/>
			<path style="clip-path:url(#SVGID_00000156588333409530783140000008950049680387153068_);fill:#97CC96;" d="M337.921,179.258
				v-11.836c0,0,3.668-5.646,18.584-2.06c14.916,3.586,27.305-0.734,31.625-5.542v19.439H337.921z"/>
			<path style="clip-path:url(#SVGID_00000156588333409530783140000008950049680387153068_);fill:#70AC92;" d="M388.129,179.258
				v-21.884c0,0-13.938,2.038-27.224,12.226c-13.286,10.188-26.684,2.08-26.684,2.08v9.005L388.129,179.258z"/>
		</g>
	</g>
</g>
<g id="TEXTS">
	<text transform="matrix(1 0 0 1 192.5557 291.6426)" style="fill:#5F947A; font-family:'Nunito-Bold'; font-size:9.2025px;">RESPONSIVE WEBSITE</text>
	<rect x="183.958" y="298.099" style="fill:none;" width="93.555" height="6.619"/>
	<text transform="matrix(1 0 0 1 183.9575 300.3467)"><tspan x="0" y="0" style="fill:#5F947A; font-family:'Montserrat-Regular'; font-size:3.1661px;">Lorem ipsum dolor sit amet, consectetuer adipiscing elit, sed diam </tspan><tspan x="0" y="3.799" style="fill:#5F947A; font-family:'Montserrat-Regular'; font-size:3.1661px;">nonummy nibh euismod.</tspan></text>
	<text transform="matrix(1 0 0 1 277.6455 320.9707)" style="fill:#CEFBCE; font-family:'Montserrat-Medium'; font-size:3.3133px;">SERVICE</text>
	<text transform="matrix(1 0 0 1 248.3418 320.9707)" style="fill:#CEFBCE; font-family:'Montserrat-Medium'; font-size:3.3133px;">INFO</text>
	<text transform="matrix(1 0 0 1 310.9385 320.9707)" style="fill:#CEFBCE; font-family:'Montserrat-Medium'; font-size:3.3133px;">CONTACT</text>
	<text transform="matrix(1 0 0 1 220.8535 320.9707)" style="fill:#CEFBCE; font-family:'Montserrat-Medium'; font-size:3.3133px;">HOME</text>
	<g>
		
			<text transform="matrix(1 0 0 1 419.2344 320.9707)" style="fill:#CEFBCE; font-family:'Montserrat-Medium'; font-size:3.3133px;">LOGIN</text>
	</g>
	<text transform="matrix(1 0 0 1 246.3628 338.001)" style="fill:#70AC92; font-family:'Nunito-SemiBold'; font-size:6.6587px;">LATEST</text>
	<text transform="matrix(1 0 0 1 297.6719 355.3447)" style="fill:#70AC92; font-family:'Nunito-Regular'; font-size:8.7395px;">TITLE HERE</text>
	<g>
		<text transform="matrix(1 0 0 1 297.6719 363.377)" style="fill:#8B929D; font-family:'Nunito-Regular'; font-size:6.9325px;">HEADLINE HERE</text>
	</g>
	<g>
		<rect x="297.272" y="372.335" style="fill:none;" width="125.682" height="11.064"/>
		<text transform="matrix(1 0 0 1 297.2725 374.5283)"><tspan x="0" y="0" style="fill:#272E31; font-family:'Montserrat-Medium'; font-size:3.0897px;">Lorem ipsum dolor sit amet, consectetuer adipiscing elit, sed diam nonummy nibh euismod </tspan><tspan x="0" y="3.708" style="fill:#272E31; font-family:'Montserrat-Medium'; font-size:3.0897px;">tincidunt ut laoreet dolore magna aliquam erat volutpat...</tspan></text>
	</g>
	<text transform="matrix(1 0 0 1 305.6465 389.7227)" style="fill:#FFFFFF; font-family:'Nunito-Regular'; font-size:4.0929px;">MORE</text>
	<text transform="matrix(1 0 0 1 187.3501 407.7393)" style="fill:#70AC92; font-family:'Nunito-Regular'; font-size:7.7684px;">TITLE HERE</text>
	<g>
		<rect x="188.224" y="412.556" style="fill:none;" width="246.675" height="4.183"/>
		<text transform="matrix(1 0 0 1 188.2231 414.75)" style="fill:#272E31; font-family:'Montserrat-Medium'; font-size:3.0897px;">Lorem ipsum dolor sit amet, consectetuer adipiscing elit, sed diam nonummy nibh euismod tincidunt ut laoreet dolore magna aliquam erat volutpat...</text>
	</g>
	<text transform="matrix(1 0 0 1 94.0913 94.9258)" style="fill:#5F947A; font-family:'Nunito-Bold'; font-size:6.5924px;">RESPONSIVE WEBSITE</text>
	<rect x="87.93" y="99.55" style="fill:none;" width="67.02" height="4.742"/>
	<text transform="matrix(1 0 0 1 87.9297 101.1602)"><tspan x="0" y="0" style="fill:#5F947A; font-family:'Montserrat-Regular'; font-size:2.2681px;">Lorem ipsum dolor sit amet, consectetuer adipiscing elit, sed diam </tspan><tspan x="0" y="2.722" style="fill:#5F947A; font-family:'Montserrat-Regular'; font-size:2.2681px;">nonummy nibh euismod.</tspan></text>
	<text transform="matrix(1 0 0 1 152.1563 115.9775)" style="fill:#CEFBCE; font-family:'Montserrat-Medium'; font-size:2.2111px;">SERVICE</text>
	<text transform="matrix(1 0 0 1 132.6006 115.9775)" style="fill:#CEFBCE; font-family:'Montserrat-Medium'; font-size:2.2111px;">INFO</text>
	<text transform="matrix(1 0 0 1 174.3726 115.9775)" style="fill:#CEFBCE; font-family:'Montserrat-Medium'; font-size:2.2111px;">CONTACT</text>
	<text transform="matrix(1 0 0 1 114.2568 115.9775)" style="fill:#CEFBCE; font-family:'Montserrat-Medium'; font-size:2.2111px;">HOME</text>
	<g>
		<text transform="matrix(1 0 0 1 256.915 115.9355)" style="fill:#CEFBCE; font-family:'Montserrat-Medium'; font-size:2.2111px;">LOGIN</text>
	</g>
	<text transform="matrix(1 0 0 1 133.0142 128.1348)" style="fill:#70AC92; font-family:'Nunito-SemiBold'; font-size:4.5231px;">LATEST</text>
	<text transform="matrix(1 0 0 1 92.6211 172.5264)" style="fill:#70AC92; font-family:'Nunito-Regular'; font-size:4.0648px;">TITLE HERE</text>
	<g>
		<text transform="matrix(1 0 0 1 92.6211 176.2617)" style="fill:#8B929D; font-family:'Nunito-Regular'; font-size:3.2244px;">HEADLINE HERE</text>
	</g>
	<g>
		<rect x="92.622" y="179.126" style="fill:none;" width="43.45" height="8.838"/>
		<text transform="matrix(1 0 0 1 92.6211 180.3291)"><tspan x="0" y="0" style="fill:#272E31; font-family:'Montserrat-Medium'; font-size:1.6962px;">Lorem ipsum dolor sit amet, consectetuer adipiscing elit, sed </tspan><tspan x="0" y="2.036" style="fill:#272E31; font-family:'Montserrat-Medium'; font-size:1.6962px;">diam nonummy nibh euismod tincidunt ut laoreet...</tspan></text>
	</g>
	<text transform="matrix(1 0 0 1 153.1411 172.5264)" style="fill:#70AC92; font-family:'Nunito-Regular'; font-size:4.0648px;">TITLE HERE</text>
	<g>
		<text transform="matrix(1 0 0 1 153.1411 176.2617)" style="fill:#8B929D; font-family:'Nunito-Regular'; font-size:3.2244px;">HEADLINE HERE</text>
	</g>
	<g>
		<rect x="153.142" y="179.126" style="fill:none;" width="44.542" height="8.838"/>
		<text transform="matrix(1 0 0 1 153.1421 180.3291)"><tspan x="0" y="0" style="fill:#272E31; font-family:'Montserrat-Medium'; font-size:1.6962px;">Lorem ipsum dolor sit amet, consectetuer adipiscing elit, sed </tspan><tspan x="0" y="2.036" style="fill:#272E31; font-family:'Montserrat-Medium'; font-size:1.6962px;">diam nonummy nibh euismod tincidunt ut laoreet...</tspan></text>
	</g>
	<text transform="matrix(1 0 0 1 214.7847 172.5264)" style="fill:#70AC92; font-family:'Nunito-Regular'; font-size:4.0648px;">TITLE HERE</text>
	<g>
		<text transform="matrix(1 0 0 1 214.7847 176.2617)" style="fill:#8B929D; font-family:'Nunito-Regular'; font-size:3.2244px;">HEADLINE HERE</text>
	</g>
	<g>
		<rect x="214.786" y="179.126" style="fill:none;" width="44.195" height="8.838"/>
		<text transform="matrix(1 0 0 1 214.7847 180.3291)"><tspan x="0" y="0" style="fill:#272E31; font-family:'Montserrat-Medium'; font-size:1.6962px;">Lorem ipsum dolor sit amet, consectetuer adipiscing elit, sed </tspan><tspan x="0" y="2.036" style="fill:#272E31; font-family:'Montserrat-Medium'; font-size:1.6962px;">diam nonummy nibh euismod tincidunt ut laoreet...</tspan></text>
	</g>
	<text transform="matrix(1 0 0 1 339.5273 126.9727)" style="fill:#70AC92; font-family:'Nunito-Regular'; font-size:4.2556px;">TITLE HERE</text>
	<g>
		<text transform="matrix(1 0 0 1 339.5273 130.8828)" style="fill:#8B929D; font-family:'Nunito-Regular'; font-size:3.3757px;">HEADLINE HERE</text>
	</g>
	<g>
		<rect x="339.527" y="134.451" style="fill:none;" width="44.059" height="8.328"/>
		<text transform="matrix(1 0 0 1 339.5273 135.7148)"><tspan x="0" y="0" style="fill:#272E31; font-family:'Montserrat-Medium'; font-size:1.7814px;">Lorem ipsum dolor sit amet, consectetuer adipiscing elit, </tspan><tspan x="0" y="2.138" style="fill:#272E31; font-family:'Montserrat-Medium'; font-size:1.7814px;">sed diam nonummy nibh euismod tincidunt...</tspan></text>
	</g>
	<text transform="matrix(1 0 0 1 393.0869 126.9727)" style="fill:#70AC92; font-family:'Nunito-Regular'; font-size:4.2556px;">TITLE HERE</text>
	<g>
		<text transform="matrix(1 0 0 1 393.0869 130.8828)" style="fill:#8B929D; font-family:'Nunito-Regular'; font-size:3.3757px;">HEADLINE HERE</text>
	</g>
	<g>
		<rect x="393.087" y="134.451" style="fill:none;" width="44.059" height="8.328"/>
		<text transform="matrix(1 0 0 1 393.0869 135.7148)"><tspan x="0" y="0" style="fill:#272E31; font-family:'Montserrat-Medium'; font-size:1.7814px;">Lorem ipsum dolor sit amet, consectetuer adipiscing elit, </tspan><tspan x="0" y="2.138" style="fill:#272E31; font-family:'Montserrat-Medium'; font-size:1.7814px;">sed diam nonummy nibh euismod tincidunt...</tspan></text>
	</g>
	<text transform="matrix(1 0 0 1 339.3486 182.9697)" style="fill:#70AC92; font-family:'Nunito-Regular'; font-size:4.2556px;">TITLE HERE</text>
	<g>
		<text transform="matrix(1 0 0 1 339.3486 186.8809)" style="fill:#8B929D; font-family:'Nunito-Regular'; font-size:3.3757px;">HEADLINE HERE</text>
	</g>
	<g>
		<rect x="339.348" y="190.448" style="fill:none;" width="44.059" height="8.328"/>
		<text transform="matrix(1 0 0 1 339.3486 191.7119)"><tspan x="0" y="0" style="fill:#272E31; font-family:'Montserrat-Medium'; font-size:1.7814px;">Lorem ipsum dolor sit amet, consectetuer adipiscing elit, </tspan><tspan x="0" y="2.138" style="fill:#272E31; font-family:'Montserrat-Medium'; font-size:1.7814px;">sed diam nonummy nibh euismod tincidunt...</tspan></text>
	</g>
	<text transform="matrix(1 0 0 1 392.9092 182.9697)" style="fill:#70AC92; font-family:'Nunito-Regular'; font-size:4.2556px;">TITLE HERE</text>
	<g>
		<text transform="matrix(1 0 0 1 392.9092 186.8809)" style="fill:#8B929D; font-family:'Nunito-Regular'; font-size:3.3757px;">HEADLINE HERE</text>
	</g>
	<g>
		<rect x="392.908" y="190.448" style="fill:none;" width="44.059" height="8.328"/>
		<text transform="matrix(1 0 0 1 392.9082 191.7119)"><tspan x="0" y="0" style="fill:#272E31; font-family:'Montserrat-Medium'; font-size:1.7814px;">Lorem ipsum dolor sit amet, consectetuer adipiscing elit, </tspan><tspan x="0" y="2.138" style="fill:#272E31; font-family:'Montserrat-Medium'; font-size:1.7814px;">sed diam nonummy nibh euismod tincidunt...</tspan></text>
	</g>
	<text transform="matrix(1 0 0 1 381.6279 83.5298)" style="fill:#70AC92; font-family:'Nunito-SemiBold'; font-size:4.4285px;">LATEST</text>
	<text transform="matrix(1 0 0 1 341.0938 74.7822)" style="fill:#5F947A; font-family:'Nunito-Bold'; font-size:6.9609px;">RESPONSIVE WEBSITE</text>
	<text transform="matrix(1 0 0 1 88.2158 307.8037)" style="fill:#70AC92; font-family:'Nunito-SemiBold'; font-size:3.0569px;">LATEST</text>
	<text transform="matrix(1 0 0 1 61.8086 302.1826)" style="fill:#5F947A; font-family:'Nunito-Bold'; font-size:4.805px;">RESPONSIVE WEBSITE</text>
	<text transform="matrix(1 0 0 1 57.1538 369.3018)" style="fill:#70AC92; font-family:'Nunito-Regular'; font-size:4.6891px;">TITLE HERE</text>
	<g>
		<text transform="matrix(1 0 0 1 57.1538 373.6104)" style="fill:#8B929D; font-family:'Nunito-Regular'; font-size:3.7195px;">HEADLINE HERE</text>
	</g>
	<g>
		<rect x="57.155" y="377.542" style="fill:none;" width="69.926" height="9.176"/>
		<text transform="matrix(1 0 0 1 57.1543 378.9355)"><tspan x="0" y="0" style="fill:#272E31; font-family:'Montserrat-Medium'; font-size:1.9629px;">Lorem ipsum dolor sit amet, consectetuer adipiscing elit, sed diam nonummy nibh </tspan><tspan x="0" y="2.355" style="fill:#272E31; font-family:'Montserrat-Medium'; font-size:1.9629px;">euismod tincidunt...</tspan></text>
	</g>
	<text transform="matrix(1 0 0 1 61.3403 386.9297)" style="fill:#FFFFFF; font-family:'Nunito-Regular'; font-size:2.0464px;">MORE</text>
	<text transform="matrix(1 0 0 1 59.8052 417.0508)" style="fill:#70AC92; font-family:'Nunito-Regular'; font-size:2.8277px;">TITLE HERE</text>
	<g>
		<text transform="matrix(1 0 0 1 59.8052 419.6494)" style="fill:#8B929D; font-family:'Nunito-Regular'; font-size:2.243px;">HEADLINE HERE</text>
	</g>
	<text transform="matrix(1 0 0 1 100.1885 417.0508)" style="fill:#70AC92; font-family:'Nunito-Regular'; font-size:2.8277px;">TITLE HERE</text>
	<g>
		<text transform="matrix(1 0 0 1 100.1885 419.6494)" style="fill:#8B929D; font-family:'Nunito-Regular'; font-size:2.243px;">HEADLINE HERE</text>
	</g>
</g>
</svg>
